<svg xmlns="http://www.w3.org/2000/svg" data-name="Layer 1" viewBox="0 0 128 128"><path d="M120.23242,40H116.313a1.98933,1.98933,0,0,0-.313.03156V33.82471a1.99956,1.99956,0,0,0-1.71875-1.98,89.08813,89.08813,0,0,0-14.34888-.82812C99.97278,31.67328,100,32.33337,100,33c0,.68433-.02905,1.36169-.07159,2.03546A85.13449,85.13449,0,0,1,112,35.58057V92.93311c-7.24939.00934-31.655.59521-46,7.66876V64.93134a31.9031,31.9031,0,0,1-4-.49207v36.16254c-14.346-7.074-38.75293-7.65936-46-7.6687V35.58057a90.15642,90.15642,0,0,1,20.11206-.0163C36.042,34.71136,36,33.8562,36,33c0-.50342.015-1.00323.03809-1.501a93.31343,93.31343,0,0,0-22.31934.34576A1.99956,1.99956,0,0,0,12,33.82471v6.20685A1.98934,1.98934,0,0,0,11.687,40H7.76758A7.74965,7.74965,0,0,0,0,47.71436v56.78076a7.74965,7.74965,0,0,0,7.76758,7.71436H44.47021a9.24173,9.24173,0,0,1,7.21875,3.42871l1.98389,2.4502a13.31271,13.31271,0,0,0,20.6543,0l1.98389-2.4502a9.24173,9.24173,0,0,1,7.21875-3.42871h36.70264A7.74965,7.74965,0,0,0,128,104.49512V47.71436A7.74965,7.74965,0,0,0,120.23242,40ZM124,104.49512a3.74522,3.74522,0,0,1-3.76758,3.71436H83.52979a13.225,13.225,0,0,0-10.32715,4.91113l-1.98389,2.4502a9.31263,9.31263,0,0,1-14.4375,0l-1.98389-2.4502a13.225,13.225,0,0,0-10.32715-4.91113H7.76758A3.74522,3.74522,0,0,1,4,104.49512V47.71436A3.74553,3.74553,0,0,1,7.76758,44H11.687A1.98934,1.98934,0,0,0,12,43.96844V94.94775a2.00107,2.00107,0,0,0,.6001,1.42871,1.96188,1.96188,0,0,0,1.44092.5708c.33594-.01074,34.27539-.58936,48.88281,8.73828a1.99875,1.99875,0,0,0,2.15234,0c14.59717-9.32129,48.541-8.74121,48.8833-8.73828a2.02594,2.02594,0,0,0,1.44043-.57129A1.99911,1.99911,0,0,0,116,94.94775V43.96844A1.98933,1.98933,0,0,0,116.313,44h3.91943A3.74553,3.74553,0,0,1,124,47.71436Z"/><path d="M42.11084,58.56689a1.999,1.999,0,0,0,1.69922,1.335,33.92291,33.92291,0,0,0,12.60938-1.40674A27.70906,27.70906,0,0,0,68,61,28.00962,28.00962,0,1,0,45.9248,50.21826a13.36079,13.36079,0,0,1-3.30762,6.24756A2.0003,2.0003,0,0,0,42.11084,58.56689ZM44,33A24,24,0,1,1,68,57a23.75571,23.75571,0,0,1-10.5957-2.46436,1.99978,1.99978,0,0,0-1.61084-.06934A25.46861,25.46861,0,0,1,47.9502,55.96a21.9091,21.9091,0,0,0,2.105-5.79248,2.0013,2.0013,0,0,0-.42139-1.7251A24.01228,24.01228,0,0,1,44,33Z"/><path d="M59 26H77a2 2 0 000-4H59a2 2 0 000 4zM77 38H59a2 2 0 000 4H77a2 2 0 000-4zM55 34H81a2 2 0 000-4H55a2 2 0 000 4z"/></svg>