<svg xmlns="http://www.w3.org/2000/svg" viewBox="0 0 66 66"><path d="M64.6 4.7c0-.3 0-.5-.1-.8 0-.2-.1-.5-.1-.7 0-.1 0-.2-.1-.3-.1-.2-.1-.3-.2-.5 0-.1-.1-.1-.1-.2-.1-.2-.2-.3-.4-.4S63.2 1.6 63 1.5c-.1 0-.2 0-.3 0s-.2 0-.3 0c-.2 0-.3 0-.5 0-1.2 0-2.3.1-3.5.1s-2.3 0-3.5 0-2.3-.1-3.5-.2c-1.1-.1-2.3-.1-3.4-.1-1 0-1.9-.1-2.9-.1-.3 0-.5 0-.8 0-1.2 0-2.3.1-3.5.3-.4.1-.8.1-1.2.2-.6.1-1.2.2-1.8.4-.3.1-.5.3-.7.5s-.3.5-.4.7c-.1.2-.1.4-.1.6 0 .2 0 .4-.1.6-.1.7-.1 1.4-.1 2.1 0 .8 0 1.6 0 2.4 0 1.5 0 3.1-.1 4.6 0 .5 0 1.1 0 1.6-.3 0-.6 0-.9 0-.1 0-.3 0-.4 0-.6 0-1.2 0-1.8.1-.8 0-1.5.1-2.3.3-.6.1-1.2.2-1.8.4-.6.2-1.1.3-1.6.6-.6.3-1.1.6-1.6.9-.5.4-1 .8-1.5 1.2-.3.2-.5.5-.7.7-.2-.1-.4-.2-.7-.2-.1 0-.2 0-.3 0-.1 0-.2 0-.4 0-.6 0-1.1 0-1.7.1-1.1.1-2.2.1-3.3.2-2.3.2-4.6.2-6.9.2-1.1 0-2.3 0-3.4 0-.6 0-1.1 0-1.7.1-.3 0-.6 0-.9.1-.5.1-1 .1-1.5.3-.2.1-.4.2-.6.4-.2.2-.3.3-.4.5 0 .1-.1.1-.1.2.2 0 .2.2.1.3-.1.2-.1.4-.1.6-.1.5-.1 1.1-.1 1.6 0 1.1 0 2.2 0 3.2 0 1.1 0 2.2 0 3.3 0 .8 0 1.7-.1 2.5-.2.1-.3.3-.4.5 0 .2-.1.3-.1.5s.1.4.2.6c.1.1.2.3.3.4 0 .3.3.5.6.5.1 0 .2 0 .3-.1.1 0 .2 0 .3.1.4.1.8.1 1.2.1.5 0 1 0 1.5 0 .6 0 1.1-.1 1.7-.1.6-.1 1.2-.1 1.8-.2.5-.1.9-.1 1.4-.2V35c-.1.1-.1.2-.1.3-.1.1-.2.3-.2.4 0 .1-.1.3-.1.4 0 .1 0 .3-.1.4.1.8.1 1.4.1 2 0 1.2 0 2.4.2 3.5.3 2.4.6 4.8 1.4 7.1.2.5.4 1.1.6 1.6.2.5.5 1.1.8 1.6.5 1 1.2 2 1.9 2.9 1.6 2 3.5 3.7 5.6 5.2 2 1.4 4.3 2.4 6.6 3 1.1.3 2.2.5 3.3.7 1.2.2 2.3.4 3.5.4s2.3 0 3.5-.2c.6-.1 1.2-.2 1.8-.4.6-.2 1.1-.4 1.7-.6.5-.2 1.1-.4 1.6-.7.6-.3 1.2-.5 1.7-.8 1-.5 2-1.2 2.9-1.9s1.8-1.5 2.6-2.2c.9-.8 1.7-1.6 2.5-2.5s1.5-1.8 2.1-2.8c.3-.4.5-.9.7-1.4.3-.5.5-1.1.7-1.7.2-.5.4-1 .5-1.5.2-.5.3-1 .5-1.5.3-1 .5-2.1.6-3.1.2-1.2.3-2.4.4-3.7 0-.6 0-1.2 0-1.8s-.1-1.3-.1-1.9c-.1-.8-.2-1.6-.4-2.4-.2-.8-.3-1.6-.5-2.3-.5-1.5-1-3-1.7-4.4-.6-1.3-1.6-2.4-2.6-3.4-.5-.5-1.1-1-1.6-1.4-.1-.1-.3-.2-.4-.3.5 0 .9 0 1.4 0 1.1 0 2.1.1 3.2.1 1.2 0 2.4 0 3.6-.1 1.1-.1 2.2-.2 3.3-.4.4-.1.8-.2 1.2-.4.4-.2.6-.6.8-1 .2-.6.2-1.2.3-1.9.1-1.1.1-2.2.2-3.3s.1-2.2.2-3.3c.1-1.2.1-2.3.2-3.5C64.6 7 64.7 5.9 64.6 4.7zM31.8 33.3L31.8 33.3C31.8 33.4 31.8 33.4 31.8 33.3c-.2-.1-.4-.2-.5-.2-.2 0-.3.1-.4.2-1.1 1.2-2.1 2.4-3.2 3.6-1 1.2-2.1 2.4-3.1 3.6-.9 1-1.8 1.9-2.7 2.8 0-.1 0-.1 0-.2 0-.2-.1-.5-.2-.7-.1-.4-.3-.7-.4-1.1l0 0c.1-.1.3-.3.4-.4.4-.5.8-.9 1.3-1.4.9-.9 1.7-1.9 2.6-2.9 1.6-1.8 3.1-3.5 4.6-5.3.1-.1.2-.3.2-.5s-.1-.3-.2-.5-.3-.2-.5-.2l0 0c-.1 0-.3.1-.4.2-1.5 1.8-3.1 3.6-4.6 5.3-.8 1-1.7 1.9-2.6 2.9-.4.5-.8.9-1.3 1.4-.1-.3-.2-.5-.3-.8-.1-.3-.2-.7-.3-1 .2 0 .3-.1.4-.2 0-.1.1-.1.1-.2.6-.8 1.3-1.5 1.9-2.3.4-.5.8-.9 1.1-1.4l0 0c.2-.1.3-.2.5-.3.1-.1.2-.3.3-.4.1-.1.1-.2.1-.3.3-.3.6-.7.9-1 .5-.6 1.1-1.2 1.6-1.8.1-.1.2-.3.2-.5s-.1-.3-.2-.5C27 29.1 26.8 29 26.6 29s-.3.1-.4.2c-.5.6-1 1.2-1.6 1.7 0-.4-.1-.9-.1-1.3 0-.5 0-1.1 0-1.6.5.1 1.1.2 1.6.3.6.1 1.1.3 1.7.5.2.1.4.2.7.3.3.2.5.3.8.5.2.2.4.3.6.5.2.1.3.3.4.5.4.5.8 1.1 1 1.7C31.7 32.8 31.7 33 31.8 33.3zM30.9 39.2c0 .3.1.6.1.9 0 .4 0 .8 0 1.2 0 .2-.1.4-.2.6-.1.2-.2.3-.3.4-.1.1-.2.3-.4.4-.2.1-.3.2-.5.3-.3.1-.7.2-1 .3-.1 0-.2 0-.3 0-.5 0-.9.1-1.4.2.4-.4.7-.8 1.1-1.2C29 41.3 30 40.2 30.9 39.2L30.9 39.2zM21.8 47.5c-.1.1-.3.2-.4.3C21.2 47.9 21 48 20.7 48c-.1 0-.2 0-.3.1-.3 0-.5 0-.8 0-.2 0-.3-.1-.4-.1.2-.2.3-.3.5-.5.3-.3.5-.6.8-.9.5-.5 1-1.1 1.6-1.6.6-.6 1.2-1.2 1.7-1.8.5-.5 1-1 1.5-1.6 1.1-1.1 2.1-2.3 3.1-3.5.6-.7 1.1-1.3 1.7-2 .5-.6 1.1-1.2 1.6-1.8 0 0 0-.1.1-.2v.1c-.1.6-.3 1.1-.5 1.7-.1.4-.2.9-.3 1.3l0 0c-1.4 1.5-2.7 3.1-4.1 4.6-.6.7-1.3 1.4-1.9 2.1-.2.2-.3.4-.5.6-.1.1-.1.1-.2.1-.2.2-.4.4-.6.6-.2.2-.3.4-.4.5-.3.3-.5.7-.8 1 0 .1-.1.1-.1.2C22.2 47.1 22 47.3 21.8 47.5zM15 40.7c-.1.1-.1.2-.2.2-.1-.3-.2-.5-.2-.8-.1-.6-.2-1.3-.4-2-.1-.4-.1-.8-.2-1.2.6.7 1.3 1.5 1.9 2.2.1.1.1.1.2.2 0 0 0 0-.1 0-.2 0-.3.1-.4.3C15.5 40.1 15.2 40.4 15 40.7zM15.2 42.3c.1-.1.1-.2.2-.2.5-.5 1-1.1 1.4-1.7 0 0 .1-.1.1-.2.4.5.9 1 1.3 1.4.3.3.5.6.8.9h-.1c-.1 0-.1 0-.2 0-.2 0-.3.1-.4.3-.2.2-.3.4-.5.6-.4.4-.7.8-1.1 1.2-.1.2-.3.3-.4.5 0 0 0-.1-.1-.1-.2-.3-.3-.6-.4-1C15.6 43.5 15.4 42.9 15.2 42.3 15.2 42.4 15.1 42.4 15.2 42.3 15.1 42.3 15.2 42.3 15.2 42.3zM21.8 34.8c-.2.3-.4.5-.6.8-.3.4-.6.8-.9 1.2-.1.2-.2.3-.3.5-.2-.6-.4-1.2-.5-1.9 0-.1 0-.2 0-.4C20.2 34.9 21 34.9 21.8 34.8zM17 46.2c.2-.2.5-.5.7-.7.6-.6 1.1-1.2 1.7-1.9.1-.1.1-.2.1-.3.1.1.2.2.2.3.2.3.5.7.9.7.1 0 .2 0 .4 0-.4.4-.8.8-1.2 1.3-.5.5-1 1.1-1.5 1.6-.1.1-.2.2-.2.3 0 0-.1-.1-.2-.1-.3-.2-.5-.5-.8-.8C17.1 46.5 17 46.3 17 46.2 16.9 46.2 16.9 46.2 17 46.2zM23.1 21.2L23.1 21.2C23 21.2 23 21.2 23.1 21.2L23.1 21.2zM23 21.2C22.9 21.1 22.9 21.1 23 21.2 22.9 21.1 22.9 21.1 23 21.2L23 21.2zM22.9 21.1L22.9 21.1 22.9 21.1 22.9 21.1zM4.6 33.5c.1-.1.2-.3.3-.4C5 33 5.1 32.8 5.1 32.7c0-.2-.1-.3-.2-.5C4.8 32.1 4.7 32 4.5 32S4.1 32.1 4 32.2c-.2.3-.5.6-.7.9 0-.3 0-.7.1-1 .1 0 .3-.1.3-.2.1-.1.1-.2.2-.3.2-.2.3-.4.5-.7.2-.3.1-.7-.2-.8C4.1 30 4 30 3.9 30c-.2 0-.3.1-.5.2 0-.4 0-.9 0-1.3 0-1 0-1.9 0-2.9 0-.9.1-1.9.2-2.8 0-.4.1-.7.2-1.1C3.9 22 4 21.9 4 21.8l.1-.1c.1-.1.2-.1.2-.1.3-.1.7-.2 1-.3.3-.1.6-.1.9-.1 2.8-.3 5.6-.2 8.5-.3 1.5 0 2.9 0 4.4.1 1.2.1 2.5.1 3.7.2h.1l0 0c.1.3.1.6.2.8.1.9.1 1.8.1 2.7 0 .9 0 1.8-.1 2.6 0 1-.1 1.9-.2 2.9 0 .8 0 1.5-.1 2.3l0 0c-.1 0-.1.1-.2.1-.4.1-.7.2-1.1.3C21 33 20.5 33 20 33s-1-.1-1.5 0c-.4.1-.8.5-.9.9-.1.5-.1.9 0 1.4.1.6.2 1.1.4 1.7.1.5.3 1 .4 1.5.2.6.4 1.1.6 1.7 0 .1.1.3.1.4-.2-.2-.4-.5-.6-.7-.7-1-1.5-1.9-2.2-2.9-.5-.7-1-1.4-1.5-2.1-.2-.3-.4-.6-.6-.9-.1-.2-.2-.4-.4-.6-.2-.3-.4-.5-.7-.7-.2-.1-.3-.1-.5-.1-.1 0-.3 0-.4 0-.1 0-.3.1-.4.1-.3.1-.6.2-1 .3.2-.2.3-.6 0-.9-.1-.1-.3-.2-.5-.2S10 32 9.9 32.1c-.4.4-.9.7-1.3 1.1 0 0 0 0-.1 0l0 0c-.3 0-.7.1-1 .1l0 0c.3-.2.3-.6 0-.9-.1-.1-.3-.2-.5-.2s-.3.1-.4.2c-.2.2-.5.4-.7.7-.1.1-.2.2-.3.4C5.3 33.5 5 33.5 4.6 33.5zM12.2 34.7L12.2 34.7 12.2 34.7 12.2 34.7 12.2 34.7zM12.2 34.7L12.2 34.7 12.2 34.7 12.2 34.7zM25.4 57.1c.1-.3.1-.6.2-1 .2-.4.4-.7.6-1 .2-.2.4-.4.6-.6.3-.2.7-.4 1-.6.1 0 .1-.1.2-.1-.5.7-1 1.3-1.5 2-.3.4-.6.8-.9 1.2-.1.2-.3.4-.4.6C25.4 57.4 25.4 57.2 25.4 57.1zM30.7 52.8c.9-.4 1.6-1.1 2.3-1.8.4-.5.8-1 1.2-1.4l.1-.1c.1 0 .1 0 .2-.1.1 0 .2 0 .3 0s.2.1.4.1c.1 0 .1.1.2.1 0 0-.1 0-.1.1-.4.5-.8.9-1.2 1.4l0 0C33.3 52 32.5 53 31.8 54c-.9 1.1-1.7 2.2-2.6 3.2l.1-.1c-.6.7-1.1 1.4-1.7 2-.2.3-.5.5-.7.8-.2.2-.4.4-.6.7-.1-.3-.3-.5-.4-.8s-.2-.6-.3-.9c.2 0 .5-.1.6-.3l0 0c.2-.4.5-.7.8-1.1.3-.4.6-.8.9-1.2.6-.9 1.3-1.7 1.9-2.6.1-.1.1-.3.1-.5 0 0 0 0 0-.1C30.1 53.1 30.4 52.9 30.7 52.8zM34.3 49.5L34.3 49.5 34.3 49.5C34.4 49.5 34.3 49.5 34.3 49.5zM34.4 49.5L34.4 49.5 34.4 49.5 34.4 49.5zM26.8 61.7L26.8 61.7c.1-.1.2-.1.2-.2 1.3-1.3 2.5-2.6 3.6-4 .6-.8 1.3-1.6 1.9-2.3.6-.7 1.2-1.5 1.8-2.2l-.1.1c.7-.8 1.4-1.6 2-2.4 0-.1 0-.1.1-.2l0 0c0 .1.1.1.1.2.1.2.2.3.3.5.2.5.2 1 .3 1.6-.6.8-1.3 1.6-1.9 2.4-.6.8-1.3 1.6-1.9 2.5-.6.8-1.3 1.6-1.9 2.4-.3.4-.6.8-1 1.2-.2.2-.3.4-.5.6-.1.2-.3.3-.4.5-.5-.1-.9-.2-1.4-.3C27.6 61.9 27.2 61.8 26.8 61.7zM30.7 62.6c.1-.1.1-.1.2-.2C30.8 62.4 30.8 62.5 30.7 62.6c1.1-1.3 2-2.5 3-3.8 1-1.2 2-2.5 3-3.7l0 0c.3-.3.5-.6.8-1 .2.5.5 1 .8 1.5.2.3.4.5.6.7-.3.3-.6.7-.8 1l.1-.1c-.8.9-1.6 1.9-2.4 2.8-.4.5-.8.9-1.3 1.4-.2.2-.3.4-.5.6-.2.2-.3.3-.5.5-.1.1-.1.2-.1.3-.8-.1-1.7-.1-2.5-.2C30.9 62.6 30.8 62.6 30.7 62.6zM36.9 62.8c-.7.1-1.4.1-2.1.1.1-.1.1-.1.2-.2.3-.2.5-.5.7-.7.6-.6 1.1-1.2 1.6-1.9.5-.5.9-1.1 1.4-1.6.4-.5.8-.9 1.2-1.4.4.3.9.5 1.4.7.1 0 .2.1.3.2-.5.8-1.1 1.6-1.6 2.4-.3.4-.6.8-.9 1.3-.1.2-.3.4-.4.5-.1.1-.1.2-.2.3 0 .1-.1.1-.2.2l0 0C37.8 62.7 37.3 62.7 36.9 62.8zM41.1 61.7c-.3.1-.6.2-1 .3.3-.4.6-.8 1-1.2.5-.7 1-1.3 1.4-2l.1.1c0 .1.1.3.1.4 0 .2 0 .5 0 .7 0 .3.1.5.3.7-.1.1-.3.1-.4.2C42.1 61.2 41.6 61.4 41.1 61.7zM51.6 53.3c-.4.6-.9 1.1-1.4 1.6l0 0c-.1-.2-.2-.3-.2-.5 0-.1-.1-.2-.2-.3.1-.1.2-.2.3-.3.2-.2.5-.4.7-.6.4-.4.8-.8 1.3-1.2.4-.4.8-.8 1.1-1.2-.1.2-.2.4-.3.6C52.5 52.1 52.1 52.7 51.6 53.3zM55 45.9c-.1.6-.3 1.2-.5 1.8 0 .1-.1.2-.1.4l0 0c-.2 0-.3.1-.4.2-.9 1-1.8 1.9-2.7 2.9-.4.4-.8.8-1.2 1.2-.2.2-.4.4-.6.7-.1.1-.1.1-.2.2C49 53.1 49 53 48.9 52.9c-.3-.3-.6-.6-.9-.8-.1-.1-.3-.2-.4-.3.1-.1.1-.1.2-.2.2-.1.4-.3.5-.4.4-.3.7-.6 1.1-1 .8-.7 1.5-1.5 2.2-2.2 1.2-1.3 2.4-2.6 3.6-4C55.2 44.7 55.2 45.3 55 45.9zM42.1 46c0-.1 0-.2 0-.3s0-.1.1-.2c.1-.1.2-.3.3-.4.3-.3.6-.6.9-.9.2-.2.3-.3.5-.5s.4-.5.6-.8c.2-.3.3-.6.4-.9.2-.4.2-.9.3-1.4 0-.2 0-.5 0-.7 0-.5 0-.9 0-1.4 0-.2.1-.3.1-.4 0-.1.1-.2.1-.2.1-.1.2-.2.3-.3.2-.1.3-.2.5-.3.4-.1.8-.2 1.2-.4.3-.1.6-.3.8-.6.3-.4.5-.8.6-1.3s.2-1 .3-1.5c.1-.4.2-.9.4-1.3.1-.2.2-.4.3-.6.1-.1.3-.3.4-.4.2-.1.4-.3.7-.4.4-.1.8-.3 1.2-.3s.7 0 1.1 0c-.1 0-.2.1-.3.2-1 1.3-1.8 2.6-2.7 3.9-1 1.4-1.9 2.9-2.8 4.4-.8 1.3-1.6 2.6-2.4 3.9-.4.7-.9 1.4-1.3 2.1-.2.4-.5.7-.7 1.1-.1.1-.2.3-.2.4-.1.1-.1.2-.2.3 0 0 0 0 0 .1 0 0 0 0 0-.1C42.2 46.6 42.2 46.3 42.1 46zM43.4 47.5c.1-.2.2-.4.4-.6.2-.3.5-.7.7-1 .4-.7.9-1.4 1.3-2.1.8-1.3 1.6-2.6 2.4-3.9.9-1.5 1.8-2.9 2.8-4.4.4-.6.9-1.2 1.3-1.9.5-.7 1-1.4 1.5-2.1.2-.3.1-.7-.2-.9h-.1c.1 0 .2 0 .3 0 .2 0 .4.1.6.1.1 0 .1 0 .2 0 .2.6.5 1.3.6 1.9.2.7.3 1.4.5 2.2 0 0-.1.1-.2.1-.5.6-.8 1.2-1.3 1.8-.4.6-.9 1.2-1.3 1.8-.5.6-.9 1.2-1.4 1.9-.4.6-.9 1.2-1.3 1.7-1 1.4-2 2.7-3 4.1-.5.6-.9 1.2-1.4 1.8-.3.3-.5.7-.8 1-.1.2-.3.4-.4.5-.1-.1-.1-.1-.2-.2-.2-.2-.4-.3-.6-.5-.2-.2-.4-.4-.6-.6-.2-.2-.3-.4-.4-.6C43 47.7 43.2 47.7 43.4 47.5zM45.9 49.8c.3-.3.5-.7.8-1 .5-.6 1-1.3 1.4-1.9.5-.7 1-1.3 1.5-2s1-1.3 1.5-2c.9-1.2 1.8-2.5 2.8-3.7.5-.6.9-1.2 1.3-1.7.2-.3.4-.6.6-.9.1.8.1 1.6.1 2.4 0 .6 0 1.1-.1 1.7 0 .5-.1 1.1-.2 1.6v-.1c0 .1 0 .1 0 .2l0 0 0 0 0 0 0 0c-.1 0-.1-.1-.2-.1-.2 0-.4.1-.5.2-.6.8-1.3 1.5-2 2.3-.7.7-1.3 1.5-2 2.2-.7.8-1.5 1.6-2.3 2.3-.4.3-.7.7-1.1 1-.1.1-.3.3-.4.4-.1.1-.2.2-.3.2 0 0-.1.1-.2.1 0 0 0 0 0 .1-.4-.3-.8-.6-1.2-.9C45.6 50.1 45.8 50 45.9 49.8zM51.1 25.1c.4.4.9.9 1.2 1.4.3.4.5.8.8 1.2.2.3.3.6.5.9-.2 0-.5 0-.7 0-.1 0-.2 0-.4 0-.5 0-.9.1-1.4.2s-.9.3-1.4.5c-.6.3-1.2.7-1.6 1.2-.4.5-.7 1.1-.9 1.8-.3.8-.3 1.7-.6 2.5 0 .1-.1.2-.2.3l0 0c-.1 0-.2.1-.2.1-.4.2-.8.3-1.2.5s-.7.4-1 .7c-.1.1-.1.1-.2.2-.1.1-.2.3-.3.4-.1.2-.3.5-.4.7-.2.6-.2 1.2-.2 1.9 0 .2 0 .5 0 .7 0 .3 0 .6 0 .9 0 .1 0 .2 0 .3 0 .2-.1.3-.2.5-.1.2-.2.3-.3.5-.3.4-.6.7-.9 1-.5.5-1.1 1-1.3 1.7C40.1 45.4 40 45.7 40 46c0 .1 0 .2 0 .3 0 .2 0 .4.1.5 0 .3.2.6.3.8s.2.4.4.6c.3.5.6.9 1 1.3.3.4.6.8 1 1.2.2.2.5.4.7.6.2.2.4.3.7.5.4.3.9.6 1.4.9.4.3.8.5 1.2.8.5.4.9.8 1.4 1.2.4.4.7.8 1.1 1.3 0 0 0 .1.1.1-.1.1-.1.1-.2.2-.9.9-1.8 1.7-2.7 2.4-.6.5-1.2.9-1.8 1.3 0-.2 0-.3 0-.5 0-.3-.1-.5-.1-.7-.1-.2-.2-.5-.3-.7-.2-.3-.4-.6-.6-.8-.2-.2-.4-.4-.6-.5-.2-.2-.5-.3-.7-.4-.3-.1-.6-.3-.9-.4-.2-.1-.4-.2-.6-.3-.2-.1-.4-.2-.6-.4-.1 0-.1-.1-.2-.1-.2-.2-.3-.3-.4-.5-.1-.2-.2-.4-.3-.6-.2-.4-.3-.8-.3-1.2C39 52.6 39 52.3 39 52c0-.2-.1-.4-.1-.7 0-.2-.1-.4-.2-.6-.1-.2-.2-.5-.4-.7-.2-.4-.6-.6-.9-.9-.2-.2-.5-.4-.7-.5-.3-.2-.5-.3-.8-.4-.2-.1-.4-.2-.6-.2-.2 0-.4-.1-.6-.1-.2 0-.4 0-.6.1-.2.1-.3.1-.5.2-.1.1-.3.2-.4.3-.1.1-.3.3-.4.4-.2.2-.4.5-.5.8-.2.3-.3.5-.5.7s-.4.4-.6.6c-.3.2-.6.4-1 .6-.6.2-1.2.4-1.8.7-.4.2-.9.4-1.3.6-.4.2-.7.5-1 .7-.3.3-.6.6-.9.9-.5.7-.8 1.4-1 2.2s-.2 1.7 0 2.5c.1.4.1.7.2 1 .1.1.1.3.2.4 0 .1.1.1.1.2 0 .1.1.1.1.2-.6-.3-1.3-.6-1.9-1-.7-.4-1.4-.9-2.1-1.4-.8-.6-1.5-1.2-2.2-1.9-.7-.6-1.3-1.3-1.9-2.1-.5-.6-.9-1.3-1.3-2-.4-.7-.8-1.4-1.2-2.2l0 0c-.2-.4-.3-.9-.5-1.3-.2-.5-.3-1-.5-1.6-.3-1.1-.5-2.2-.7-3.3l0 0 0 0c0-.1 0-.1 0-.2v.1c-.2-1.5-.3-3-.4-4.6 0-.7 0-1.4 0-2 0-.4 0-.7 0-1.1 0-.3 0-.6-.1-.9v-.1c.1-.2.1-.3 0-.5.2 0 .3-.1.5-.1l.1.1-.1-.1 0 0c.2.2.4.5.6.7 0 .1-.1.2-.1.3 0 .3.1.6.1.9l0 0v.1l0 0 0 0c.1.6.1 1.3.2 1.9.1.7.2 1.3.4 1.9.2.7.3 1.4.5 2.2.2.6.4 1.3.6 1.9.3.9.6 1.7 1.1 2.5.8 1.2 2 2 3.3 2.4.2.1.5.1.7.1.3 0 .6 0 1 0 .8-.1 1.7-.4 2.3-.9.2-.2.5-.4.6-.6.1-.2.3-.3.4-.5.2-.2.4-.5.6-.8 0 0 0 0 0 .1 0 0 0-.1.1-.1 0 0 0-.1.1-.1 0 0 0 .1-.1.1.1-.1.2-.3.4-.4.2-.2.3-.3.5-.5.1-.1.2-.1.3-.2.1-.1.3-.2.5-.2.3-.1.6-.2 1-.2.7-.1 1.4-.1 2.1-.3.3-.1.6-.2.9-.3.4-.1.8-.4 1.1-.6.2-.2.4-.4.5-.6.1-.2.3-.3.4-.5.1-.2.2-.4.3-.6.1-.3.2-.5.2-.8.1-.4.1-.9.1-1.3 0-.3 0-.6 0-.9 0-.6 0-1.2 0-1.8 0-.2.1-.3.1-.5.1-.4.2-.7.4-1.1.1-.3.2-.6.3-.9.1-.4.1-.8.2-1.2 0-.5-.1-1-.2-1.4-.1-.4-.3-.8-.5-1.1-.3-.6-.8-1.2-1.2-1.7-.4-.5-.9-1-1.5-1.4-.5-.4-1.2-.8-1.8-1-.6-.2-1.1-.5-1.7-.6-.7-.2-1.4-.3-2.1-.3 0-.9 0-1.9 0-2.8 0-.5 0-1.1 0-1.6 0-.2 0-.5 0-.7s0-.4 0-.6c.1-.1.3-.1.4-.2.3-.2.6-.5.9-.7.4-.3.8-.6 1.3-.9.4-.3.9-.5 1.4-.7.8-.3 1.7-.6 2.6-.7 1-.1 2-.2 3-.2.8 0 1.6 0 2.4 0l0 0c0 .3.1.5.2.8 0 .1 0 .1 0 .2s.1.2.1.3c0 .5.5 1 1 1 .7 0 1.4 0 2.2 0 .7 0 1.4 0 2.1 0 .1 0 .2 0 .3.1 0 .9 0 1.7-.1 2.6s-.2 1.9-.3 2.8c-.1 1.8-.2 3.7-.5 5.5 0 0 0 0 0-.1 0 .1 0 .2 0 .2 0 .2-.1.5 0 .7.1.3.2.5.5.6.2.1.5.2.8.1.1 0 .2-.1.3-.1.2-.1.3-.3.4-.4.1-.1.2-.3.2-.5.2-.4.4-.8.6-1.3.4-.9.9-1.7 1.3-2.6.4-.9.8-1.7 1.3-2.6.3-.6.7-1.2 1.1-1.8.6.3 1.2.7 1.8 1.1l0 0 0 0c.1 0 .1.1.2.1-.1 0-.1-.1-.2-.1C50.3 24.4 50.7 24.7 51.1 25.1zM42.7 19.7L42.7 19.7l.1.1C42.7 19.8 42.7 19.8 42.7 19.7zM61.8 19.5c-.1.1-.1.1-.2.2C61.7 19.6 61.7 19.5 61.8 19.5L61.8 19.5zM62.9 8.1c0 1.1-.1 2.3-.2 3.4-.1 1.1-.2 2.3-.3 3.4s-.3 2.2-.4 3.3c0-.1 0-.2 0-.3-.1.5-.1 1-.3 1.5l0 0c-.1.1-.2.1-.2.1-.7.2-1.3.4-2 .5-1 .1-1.9.2-2.9.2s-2 0-2.9-.1c-.9 0-1.9-.1-2.9-.2-.5 0-.9-.1-1.4-.1-.2 0-.5 0-.7-.1-.4 0-.9.2-1.2.4-.5.4-.7 1-1 1.5-.2.4-.4.8-.7 1.3-.5.9-.9 1.8-1.4 2.7-.3.5-.5 1.1-.8 1.6 0-.1 0-.2 0-.3.1-1.5.3-3.1.5-4.6l0 0c.1-.6.2-1.3.3-1.9 0-.2 0-.4.1-.6 0-.3 0-.6-.1-.9 0-.1-.1-.2-.1-.3.1-.1.2-.2.2-.2.1-.1.2-.3.2-.4 0-.2-.1-.3-.2-.5-.1-.1-.3-.2-.4-.2l0 0c-.2 0-.4.1-.5.3-.1.1-.1.2-.2.3-.1 0-.2-.1-.3-.1-.2-.1-.5-.1-.7-.1-.1 0-.3 0-.4 0 0 0 .1 0 .1-.1.3-.2.3-.6 0-.9-.1-.1-.3-.2-.5-.2s-.3.1-.4.2c-.2.2-.3.3-.4.5-.1.1-.2.1-.2.2-.1.1-.1.2-.1.3-.5 0-1 0-1.4 0l0 0c.2-.2.4-.5.6-.7.1-.1.2-.3.2-.4 0-.2-.1-.3-.2-.5-.1-.1-.3-.2-.4-.2-.1 0-.2 0-.3.1-.1 0-.2.1-.2.2-.2.2-.3.4-.5.6 0-.1 0-.1 0-.2 0-.5 0-1 0-1.4l0 0c.1-.1.1-.2.2-.3.2-.3.4-.6.5-.9.2-.3.1-.7-.2-.9C38.7 13 38.6 13 38.5 13s-.1 0-.2.1c0-.5 0-.9 0-1.4.1-2.1.2-4.3.5-6.4l0 0V5.2c0-.1 0-.1 0-.2 0 0 0 0 0 .1.1-.4.1-.8.2-1.2l0 0c.1-.1.2-.1.3-.2.9-.3 1.8-.5 2.8-.7 1.7-.2 3.4-.3 5.1-.3 1.7 0 3.4.1 5.1.2 1.8.1 3.6.2 5.3.3.8 0 1.6.1 2.5.2.8.1 1.6.1 2.3.2h.1c0 0 0 0 0 .1.1.3.2.7.3 1 .1.5.1 1 .1 1.5C63 6.9 62.9 7.5 62.9 8.1zM38.7 5.1C38.7 5.2 38.7 5.2 38.7 5.1L38.7 5.1 38.7 5.1z"/><path d="M7.2,30.5c0.3,0.1,0.5,0,0.8,0c0.1-0.1,0.3-0.1,0.4-0.2c0.2-0.1,0.3-0.2,0.5-0.4c0.2-0.2,0.4-0.5,0.5-0.8   c0.2-0.4,0.2-0.8,0.3-1.2c0-0.3-0.1-0.7-0.1-1c-0.1-0.1-0.1-0.3-0.2-0.4c-0.1-0.1-0.1-0.3-0.3-0.4C9,26,8.9,25.9,8.8,25.8   c-0.1-0.1-0.2-0.2-0.4-0.3c-0.1-0.1-0.3-0.1-0.4-0.2c-0.2-0.1-0.4-0.1-0.6-0.1c-0.1,0-0.3,0-0.4,0s-0.3,0.1-0.4,0.1   C6.2,25.6,6,25.8,5.7,26c-0.1,0.1-0.2,0.2-0.2,0.3c-0.1,0.1-0.1,0.2-0.2,0.3c0,0.1,0,0.2,0,0.3c0,0.1,0,0.1,0,0.2   c-0.1,0.1-0.1,0.3-0.1,0.5c0,0.3,0.1,0.6,0.2,1c0.1,0.3,0.2,0.6,0.4,0.8C6.1,29.9,6.6,30.4,7.2,30.5z M7.5,28.8L7.5,28.8   C7.6,28.8,7.6,28.8,7.5,28.8L7.5,28.8z M7.6,28.8L7.6,28.8L7.6,28.8L7.6,28.8L7.6,28.8z M7.6,28.8L7.6,28.8   C7.6,28.8,7.6,28.7,7.6,28.8C7.6,28.7,7.6,28.7,7.6,28.8C7.6,28.7,7.6,28.7,7.6,28.8z M7.6,28.7L7.6,28.7L7.6,28.7L7.6,28.7z    M7.6,27.1L7.6,27.1C7.7,27.2,7.7,27.1,7.6,27.1C7.7,27.1,7.7,27.1,7.6,27.1C7.7,27.1,7.7,27.1,7.6,27.1L7.6,27.1L7.6,27.1   L7.6,27.1L7.6,27.1z M7.2,27.1L7.2,27.1C7.3,27.1,7.3,27.1,7.2,27.1L7.2,27.1z M7.2,27.1L7.2,27.1L7.2,27.1L7.2,27.1z M7.2,27.1   c0.1,0,0.1,0,0.2-0.1h0.1h0.1c0,0,0.1,0,0.1,0.1l0.1,0.1c0,0.1,0.1,0.1,0.1,0.2S8,27.6,8,27.7c0,0.1,0,0.2,0,0.4   c0,0.1,0,0.1-0.1,0.2c0,0.1-0.1,0.2-0.1,0.2l-0.1,0.1c0,0-0.1,0-0.1,0.1l0,0l0,0c0,0,0,0-0.1,0c0,0-0.1,0-0.1-0.1l-0.1-0.1   c-0.1-0.1-0.1-0.2-0.2-0.3c-0.1-0.3-0.2-0.6-0.2-0.9l0,0C6.9,27.3,7,27.2,7.2,27.1z"/><polygon points="7.7 27.1 7.7 27.1 7.6 27.1 7.6 27.1"/><polygon points="14.3 28.6 14.3 28.6 14.3 28.6"/><polygon points="13.1 28.7 13.1 28.7 13.1 28.7"/><path d="M11.3 28.2c0 .1 0 .2 0 .3 0 .2 0 .3.1.5.1.1.1.3.2.4.1.2.3.4.4.6.1.1.2.2.4.3.1.1.3.1.4.2.4.1.7.2 1.1.1.3 0 .6-.1.9-.2.3-.1.6-.3.8-.6.2-.3.2-.5.3-.8 0-.4 0-.8-.1-1.2-.1-.3-.3-.7-.4-1-.2-.4-.6-.6-.9-.8-.3-.2-.6-.3-.9-.4-.1 0-.3 0-.4-.1-.2 0-.4 0-.6.1-.1.1-.3.1-.4.2-.1.1-.2.2-.3.3-.2.2-.5.5-.6.8C11 27 11 27.1 11 27.3c0 .1 0 .2 0 .2C11 27.8 11.1 28.1 11.3 28.2zM13.1 28.7L13.1 28.7 13.1 28.7 13.1 28.7 13.1 28.7 13.1 28.7 13.1 28.7C13.2 28.8 13.2 28.8 13.1 28.7 13.2 28.8 13.2 28.8 13.1 28.7zM14.2 28.8L14.2 28.8 14.2 28.8 14.2 28.8zM14.2 28.8L14.2 28.8 14.2 28.8 14.2 28.8zM14.3 28.6C14.3 28.6 14.3 28.7 14.3 28.6 14.3 28.7 14.3 28.6 14.3 28.6S14.3 28.7 14.3 28.6L14.3 28.6 14.3 28.6 14.3 28.6v-.1V28.6zM12.8 27.3C12.8 27.2 12.9 27.2 12.8 27.3c.1-.1.2-.1.2-.1h.1c.1 0 .2 0 .2.1.1.1.2.1.4.2.1.1.2.2.3.3.1.1.1.2.1.2 0 .1.1.2.1.3 0 .1 0 .2 0 .2 0 .1 0 .1-.1.2 0 0 0 0 0 .1L14 28.9c0 0 0 0-.1 0s-.1 0-.2.1c-.1 0-.2 0-.3 0s-.2 0-.2-.1c0 0-.1 0-.1-.1L13 28.7c0-.1-.1-.1-.1-.2-.1-.3-.2-.5-.2-.8 0-.1-.1-.2-.1-.3C12.7 27.4 12.8 27.3 12.8 27.3zM19.6 27.1L19.6 27.1 19.6 27.1 19.6 27.1 19.6 27.1zM17 28c0 .3.1.6.2.8.1.3.3.6.6.9.2.2.6.4.9.4.4.1.7 0 1.1-.1.3-.1.7-.2 1-.4.1-.1.2-.2.3-.3.1-.2.3-.3.4-.5.1-.1.1-.3.2-.4.1-.2.1-.4.1-.6 0-.1 0-.3 0-.4-.1-.2-.1-.4-.2-.6-.4-.7-.9-1.4-1.6-1.6-.2-.1-.5-.1-.7-.1-.1 0-.2 0-.3 0-.3.1-.6.2-.9.4-.3.3-.6.7-.8 1.2 0 .1 0 .1-.1.2 0 .1-.1.3-.1.4s0 .1 0 .2c0 0 0 0 0 .1C16.9 27.7 16.9 27.9 17 28zM18.9 28.4L18.9 28.4 18.9 28.4 18.9 28.4zM18.9 28.4L18.9 28.4C18.9 28.4 19 28.5 18.9 28.4 19 28.5 18.9 28.4 18.9 28.4zM19.6 27.1C19.7 27.1 19.7 27.1 19.6 27.1 19.7 27.2 19.7 27.1 19.6 27.1L19.6 27.1 19.6 27.1 19.6 27.1 19.6 27.1 19.6 27.1 19.6 27.1zM19.1 26.9L19.1 26.9 19.1 26.9 19.1 26.9zM19.1 26.9L19.1 26.9c-.1 0-.1 0-.2 0C19 26.9 19.1 26.9 19.1 26.9zM18.9 27c.1-.1.2-.1.2-.1s0 0 .1 0c0 0 0 0 .1 0h.1c.1 0 .2.1.2.1l.1.1c.1.1.1.2.2.2 0 .1.1.2.1.3 0 .1 0 .2 0 .2v.1c0 0 0 .1-.1.1 0 0 0 0-.1.1 0 0-.1.1-.2.1s-.2.1-.3.1c-.1 0-.2 0-.3 0h-.1c0 0 0 0-.1 0 0 0 0 0-.1-.1l-.1-.1c-.1-.2-.2-.5-.2-.7C18.6 27.3 18.7 27.2 18.9 27zM43.7 10.2L43.7 10.2 43.7 10.2z"/><polygon points="43.2 12.2 43.2 12.2 43.2 12.2"/><path d="M41.9 11.4L41.9 11.4 41.9 11.4 41.9 11.4zM45.1 9.2C45 9 44.9 8.7 44.7 8.5c-.3-.3-.6-.5-.9-.7-.3-.2-.7-.2-1.1-.3-.1 0-.3 0-.4.1-.2 0-.4.1-.5.2-.2.1-.4.3-.5.4-.1 0-.2 0-.2.1-.2.1-.3.3-.3.4-.1.3-.2.6-.3.8-.1.4-.2.8-.2 1.2-.1.5 0 1 .2 1.4s.4.7.7 1c.1.1.2.2.4.3.1 0 .1.1.2.1.2.1.3.1.4.2.2.1.3.1.5.1.3 0 .5 0 .7 0s.3 0 .5-.1c.1 0 .1-.1.2-.1.2-.1.3-.1.4-.2.3-.2.6-.6.7-.9.4-.9.4-2 .2-2.9C45.3 9.5 45.2 9.3 45.1 9.2zM42.8 9.4L42.8 9.4C42.7 9.3 42.7 9.3 42.8 9.4 42.8 9.3 42.8 9.3 42.8 9.4zM42.7 9.3L42.7 9.3 42.7 9.3 42.7 9.3zM43.2 12.2C43.2 12.3 43.2 12.3 43.2 12.2 43.2 12.3 43.2 12.3 43.2 12.2L43.2 12.2 43.2 12.2C43.2 12.2 43.3 12.2 43.2 12.2 43.3 12.2 43.2 12.2 43.2 12.2L43.2 12.2C43.3 12.2 43.3 12.2 43.2 12.2zM43.4 12.1C43.4 12.1 43.5 12.1 43.4 12.1 43.5 12.1 43.5 12.1 43.4 12.1 43.5 12.1 43.4 12.1 43.4 12.1zM43.5 12.1L43.5 12.1C43.5 12 43.5 12 43.5 12.1 43.5 12 43.5 12.1 43.5 12.1zM43.8 11.3c0 .1-.1.3-.1.4 0 .1-.1.2-.2.3-.1.1-.1.1-.1.1s-.1 0-.1.1c-.1 0-.1 0-.2.1-.1 0-.2 0-.3 0s-.2 0-.3-.1c-.1 0-.1-.1-.2-.1-.1-.1-.3-.2-.4-.4-.1-.1-.1-.2-.1-.2v.1-.1c0 0 0-.1-.1-.1v.1c0-.1-.1-.3-.1-.4 0-.1 0-.1 0-.2 0-.2 0-.4 0-.6 0-.1 0-.2.1-.3 0-.1.1-.3.1-.4l0 0c.2 0 .5-.1.7-.1.1 0 .2 0 .2 0 .1 0 .1 0 .2.1.1 0 .1.1.2.1.1.1.2.2.3.4.1.1.1.2.2.3 0 0 0 0 0-.1 0 0 0 0 0 .1 0 0 0 .1.1.1 0 0 0-.1-.1-.1.1.2.1.4.1.5S43.7 11.2 43.8 11.3C43.9 11.1 43.9 11.2 43.8 11.3zM53.4 9.8c-.1-.2-.2-.4-.3-.5-.1-.2-.3-.4-.5-.6-.1-.1-.3-.2-.4-.3-.1 0-.2-.1-.2-.2-.2-.1-.3-.1-.5-.2-.1 0-.2 0-.4-.1-.1 0-.2 0-.3 0-.2 0-.3 0-.5.1-.2 0-.3.1-.5.2-.3.1-.6.3-.9.5-.3.2-.6.5-.9.8-.2.2-.3.4-.5.6-.1.2-.2.5-.2.7v.1c-.1.3.1.6.4.7h.1c0 0 0 0 0 .1 0 .2.1.4.1.6.1.3.2.5.4.7.1.1.2.3.3.4.2.2.4.4.6.5.3.2.7.4 1.1.5.4.1.8 0 1.2-.1.1-.1.3-.1.4-.2.2-.1.4-.3.6-.4.1-.1.3-.3.4-.4.2-.2.3-.5.4-.7.1-.2.1-.3.2-.5.1-.3.2-.5.2-.8 0-.2 0-.4 0-.5C53.6 10.3 53.6 10.1 53.4 9.8zM51.3 9.8C51.3 9.8 51.4 9.8 51.3 9.8 51.4 9.8 51.3 9.8 51.3 9.8l.1.1C51.4 9.8 51.3 9.8 51.3 9.8S51.3 9.7 51.3 9.8C51.3 9.7 51.3 9.7 51.3 9.8 51.3 9.7 51.3 9.7 51.3 9.8 51.3 9.7 51.3 9.7 51.3 9.8zM51.9 11.7c-.1.1-.1.2-.2.3-.1.1-.2.2-.3.3s-.2.1-.3.2c-.1 0-.2.1-.3.1s-.1 0-.2 0c-.1 0-.2 0-.3-.1-.1 0-.2-.1-.3-.2-.1-.1-.2-.2-.4-.4-.1-.2-.2-.3-.3-.5 0-.1-.1-.2-.1-.3-.1-.2-.2-.4-.4-.5l0 0c.2-.2.3-.3.5-.4l0 0c.2-.1.4-.2.6-.3.2-.1.4-.1.7-.2.1 0 .2 0 .3 0s.2 0 .2.1c.1 0 .1.1.2.1.1.1.1.1.2.2.1.2.2.3.3.5 0 .1.1.2.1.3s0 .3 0 .4C52 11.4 51.9 11.6 51.9 11.7z"/><polygon points="51.3 9.8 51.3 9.8 51.3 9.8"/><path d="M58.3 13.4L58.3 13.4 58.3 13.4 58.3 13.4 58.3 13.4zM60.8 11c-.1-.3-.2-.5-.3-.7s-.2-.3-.3-.5c-.2-.2-.3-.4-.5-.5-.1-.1-.3-.2-.4-.3-.2-.1-.4-.2-.7-.3-.2-.1-.3-.1-.5-.1-.1 0-.3 0-.4 0-.1 0-.2 0-.3 0-.2 0-.3 0-.5.1-.1 0-.1.1-.2.1-.2.1-.3.1-.4.2-.2.1-.3.2-.4.4-.2.2-.3.4-.4.7-.1.2-.1.3-.2.5-.1.3-.2.6-.2.9 0 .2 0 .3 0 .5 0 .1 0 .3.1.4 0 .1 0 .1.1.2 0 .1.1.1.1.2 0 .1 0 .1 0 .2.1.2.2.4.4.4l0 0c.1.2.2.4.4.6.2.2.3.4.5.5s.3.3.5.4c.2.1.5.2.8.3.4.1.9 0 1.3-.1.2-.1.3-.1.4-.2.1 0 .1-.1.2-.1.2-.1.3-.2.4-.4.3-.4.4-.8.6-1.2 0-.2.1-.3.1-.5 0-.3 0-.6 0-.9C60.9 11.4 60.9 11.2 60.8 11zM57.6 10.3L57.6 10.3 57.6 10.3 57.6 10.3 57.6 10.3C57.5 10.3 57.5 10.3 57.6 10.3 57.5 10.3 57.5 10.3 57.6 10.3 57.5 10.3 57.5 10.3 57.6 10.3 57.5 10.3 57.5 10.3 57.6 10.3zM58.3 13.4L58.3 13.4 58.3 13.4 58.3 13.4 58.3 13.4 58.3 13.4 58.3 13.4C58.4 13.4 58.4 13.4 58.3 13.4 58.4 13.4 58.3 13.4 58.3 13.4zM58.7 13.3L58.7 13.3 58.7 13.3 58.7 13.3zM58.7 13.3L58.7 13.3C58.7 13.3 58.8 13.3 58.7 13.3 58.8 13.3 58.7 13.3 58.7 13.3zM59.2 12.4c0 .1-.1.3-.1.4C59 12.9 59 13 58.9 13.1c0 .1-.1.1-.2.2-.1 0-.1.1-.2.1-.1 0-.1 0-.2 0-.1 0-.2 0-.2 0-.1 0-.2 0-.3-.1s-.2-.1-.3-.2c-.1-.1-.2-.2-.3-.3S57 12.5 57 12.3c-.1-.2-.2-.5-.2-.7 0-.1-.1-.1-.1-.2 0-.1.1-.2.1-.3.1-.1.1-.3.2-.4.1-.1.2-.2.3-.3l.1-.1c.1 0 .1 0 .2-.1.1 0 .1 0 .2 0 .1 0 .2 0 .3.1s.3.1.4.2c.1.1.2.2.3.3s.2.3.3.4c.1.2.1.4.2.6C59.2 12.1 59.2 12.2 59.2 12.4z"/><polygon points="57.6 10.3 57.6 10.3 57.6 10.3"/><path d="M55.7 42.4L55.7 42.4C55.7 42.4 55.7 42.4 55.7 42.4 55.6 42.5 55.7 42.4 55.7 42.4zM12.3 44.1L12.3 44.1C12.2 44.1 12.2 44.1 12.3 44.1 12.2 44.1 12.2 44.1 12.3 44.1zM49.9 24L49.9 24 49.9 24 49.9 24zM12.8 36.7L12.8 36.7 12.8 36.7 12.8 36.7zM24.6 46.9L24.6 46.9 24.6 46.9C24.6 46.8 24.6 46.9 24.6 46.9z"/></svg>